<?xml version="1.0" encoding="UTF-8" standalone="no"?>
<svg xmlns="http://www.w3.org/2000/svg" xmlns:xlink="http://www.w3.org/1999/xlink" width="615.64374" height="400.47711">
  <defs>
    <path id="a" fill="#e9b96e" d="M-16.162441 697.29358c0 39.88927-10.401997 72.22591-23.233509 72.22591-12.831513 0-23.233509-32.33664-23.233509-72.22591 0-39.88927 10.401996-72.22591 23.233509-72.22591 12.831512 0 23.233509 32.33664 23.233509 72.22591z" overflow="visible" style="marker:none"/>
    <path id="b" d="M-1869.8111 739.99094s13.1709 45.71285 21.7026 46.6161c26.9386 2.85178-17.3511-47.51908-17.3511-47.51908l-4.3515.90298zm27.947 7.53722s13.1709 45.71284 21.7027 46.6161c26.9386 2.85178-17.3511-47.51908-17.3511-47.51908l-4.3516.90298zm24.3927-2.18431s13.171 45.71285 21.7027 46.6161c26.9386 2.85178-17.3511-47.51908-17.3511-47.51908l-4.3516.90298z" overflow="visible" style="marker:none"/>
    <path id="c" fill="#8f5902" d="M-167.125 492.78125c-20.99141 8.823-42.84546 15.5324-64.5625 22.03125-11.53874 5.96974-13.41991 20.21637-13.03125 32 .17833 18.00183 10.15833 38.23009 28.625 42.875 3.97017.7898 7.95117-1.76034 11.125-2.71875 8.90017 5.00901 22.87632.71839 24.71875-9.96875 7.4039 5.84247 20.91541 7.83385 26.5625-1.375 6.19919-9.84382-.77419-21.21032-7.75-28.40625-1.47871-1.94921-5.4549-4.37913-2.21875-6.6875 3.20683-5.38707.59434-14.35886 8.57567-15.99478 8.51993-4.62275 17.08389-9.06572 25.67433-13.66147.26528-15.77427-2.97483-32.58835-7.79464-47.71429-6.83402-5.17017-12.41651 6.15669-19.33482 1.3125-7.04119 9.64576-9.37397 16.76661-10.58929 28.30804z" overflow="visible" style="marker:none"/>
    <path id="d" fill="#c17d11" d="M-157.58379 499.80874s-18.97912 7.00998-33.50681 12.99437c-14.74983 6.0759-39.20885 8.15752-41.24449 16.30005-4.04061 16.16244-4.0406 38.89088 14.14214 48.9924 18.18275 10.10153-10.6066-27.27411 5.55584-29.29442 0 0 5.12421 38.1746 21.21321 28.78935 6.06092-3.53553-10.60661-25.25381-2.52539-28.28427 0 0 25.78899 32.34114 32.32488 20.20305 3.53553-6.56599-16.16244-25.25382-16.16244-25.25382 3.70442-7.40761 9.65737-14.06571 8.08122-23.23351l30.30458-16.16244v-45.70196l-15.65736-.25998-2.52538 40.91118z" overflow="visible" style="marker:none"/>
  </defs>
  <path fill="#c17d11" stroke="#8f5902" stroke-width="6" d="M-1948.2692 670.12857s-13.1299 40.74424-5.394 45.5366c24.4257 15.13138 10.1111-44.11837 10.1111-44.11837l-4.7171-1.41823z" overflow="visible" style="marker:none" transform="translate(1381.46325 -133.68716) scale(.66448)"/>
  <path fill="#c17d11" stroke="#8f5902" stroke-width="6" d="M-1942.6132 691.3129s-1.8004 44.45742 6.5743 47.67822c26.4426 10.16931-1.8497-47.25043-1.8497-47.25043l-4.7246-.42779z" overflow="visible" style="marker:none" transform="translate(1381.46325 -133.68716) scale(.66448)"/>
  <path fill="#8f5902" d="M-440.4147 503.19196c-53.15479 8.37015-58.82921 47.55143-28.11967 86.46357-57.90158 119.84565-12.07251 178.76896 35.2402 189.94714 47.31271 11.17817 101.65329-34.42968 116.00447-108.84821 2.53191-13.12928 3.76652-26.10147 3.84375-38.625 9.33549-5.53943 17.03879-15.89561 20.25-28.90625 5.50585-22.30761-4.25385-43.92396-21.78125-48.25-9.88524-2.43982-20.13537 1.13276-28.1875 8.71875 6.12902-37.23287-24.35076-41.03965-50.12947-13.10268-6.47739-21.04494-28.29811-47.39731-47.12053-47.39732z" overflow="visible" style="marker:none" transform="matrix(-.4021 .2081 .25216 .48724 -262.96084323 82.56062133)"/>
  <path fill="#c17d11" d="M-470.7272 540.50446c-2.7336 18.85012 12.25446 47.70982 12.25446 47.70982-22.35144 79.51709-60.51179 91.68191-34.47321 137.25893 13.95733 28.56068 73.34551 53.32125 91.823 46.40983 28.63223-8.35815 52.47186-39.57421 64.50346-65.31604 12.12976-26.96312 7.78246-55.0078 7.20479-84.53129 20.90214-5.20151 29.6566-36.27891 13.15625-50.5-6.92811-13.58743-13.739 16.17537-40.64732 23.13839 24.74716-58.51848-31.82255-48.82895-50.80357-10.39732 28.94436-42.15234-43.77528-93.94416-63.01786-43.77232zm78.46875 45c39.9356-.68704 60.29688 39.27899 52.89732 37.57143-25-30.71429-88.58482-28.57141-88.58482-28.57143 13.63839-6.23884 25.50783-8.82487 35.6875-9z" overflow="visible" style="marker:none" transform="matrix(-.4021 .2081 .25216 .48724 -262.96084323 82.56062133)"/>
  <use xlink:href="#a" overflow="visible" style="marker:none" transform="matrix(-.05265 1.05376 .40736 .2541 -216.34090792 202.5290816)"/>
  <path fill="#8f5902" d="M244.5 600.1875c-98.39751 2.3506-198.170559 14.97298-289.5625 52.96875C-68.943107 663.89992-93.688977 678.45713-105.5 702.75c-6.92995 17.92526 2.15652 39.36351 18.8125 48.34375 26.856127 18.22381 59.970847 23.64511 91.4899495 29.01642 67.2468865 9.40896 135.6850305 6.61186 203.1227005.29295 69.3366-7.70584 138.7274-21.50246 202.78701-49.87097 21.27612-10.3571 43.08732-23.92491 54.16284-45.5634 6.75588-15.86392 1.4123-36.05058-13.03125-45.71875-22.42223-18.69157-52.25396-24.37462-80.13587-30.52295-41.91943-7.52654-84.67157-8.88896-127.20788-8.53955z" overflow="visible" style="marker:none" transform="translate(304.81841689 -141.74185772) scale(.66448)"/>
  <path fill="#d1a662" d="M252.03044 614.01397c-64.75773.91079-135.05373 6.6575-215.6721 26.3831-29.3900231 7.81132-61.476265 16.67189-94.500673 35.1169-17.562299 9.66488-32.650401 24.39897-34.803614 34.3125-4.535364 18.33002 9.292895 27.1389 22.262195 35 38.964322 19.57367 95.107773 25.75347 155.074148 27.27534 66.753514.92065 140.005284-3.87519 223.823714-22.52534 31.81016-7.57826 66.20621-16.3936 102.86325-34.90625 17.48236-8.73873 35.66219-23.06206 40.30407-34.21875 7.67841-18.01973-3.51049-27.07833-13.97522-34.93389-30.60539-19.16078-77.2083-26.18024-126.4739-29.85598-18.87206-1.28534-38.59347-1.76632-58.90187-1.64763z" overflow="visible" style="marker:none" transform="translate(304.81841689 -141.74185772) scale(.66448)"/>
  <path fill="#b98636" d="M-1369.5625 614.53125c20 23.57144 42.8438 27.85268 77.8437 89.28125 2.1429-3.57142-17.1294-73.56696-77.8437-89.28125zm42.8437 0c20 23.57144 42.875 27.85268 77.875 89.28125 2.1429-3.57142-17.1607-73.56696-77.875-89.28125zm-90 1.4375c20 23.57142 42.875 27.85268 77.875 89.28125 2.1429-3.57143-17.1607-73.56696-77.875-89.28125zm-38.5624 2.125c19.9999 23.57146 42.8437 27.85268 77.8437 89.28125 2.1429-3.57146-17.1295-73.56696-77.8437-89.28125zm-42.875 11.4375c20 23.57144 42.8749 27.85268 77.875 89.28125 2.1428-3.57142-17.1608-73.56696-77.875-89.28125zm-39.2813 5c20.0001 23.57144 42.875 27.85268 77.875 89.28125 2.1429-3.57142-17.1607-73.56696-77.875-89.28125z" overflow="visible" style="marker:none" transform="translate(1381.46325 -133.68716) scale(.66448)"/>
  <path fill="#8f5902" d="M-1886.1805 223.19958c-84.6389.082-101.0304 63.46802-70.2794 104.63433-76.5779 16.93074-86.3746 38.44337-91.7569 95.85719-3.6711 71.64597 49.7214 137.89886 117.7793 156.4964-16.6016 56.48003-13.3973 126.50999 33.6029 167.94361 58.6454 51.00654 157.4337 50.23989 230.6784 38.59719 69.809-13.01157 130.2301-36.26691 172.4459-96.7323 21.7409-33.64041 85.2736-475.69925-392.4702-466.79642z" overflow="visible" style="marker:none" transform="translate(1381.46325 -133.68716) scale(.66448)"/>
  <g fill="#c17d11" stroke="#8f5902" stroke-width="6">
    <path d="M-1869.8111 739.99094s13.1709 45.71285 21.7026 46.6161c26.9386 2.85178-17.3511-47.51908-17.3511-47.51908l-4.3515.90298zm27.947 7.53722s22.382 67.79888 30.8281 66.29187c24.8796-4.43921-26.4765-67.19485-26.4765-67.19485l-4.3516.90298zm24.3927-2.18431s17.8418 52.2456 26.1187 49.98751c28.9904-7.90913-17.3511-47.51908-17.3511-47.51908l-8.7676-2.46843z" overflow="visible" style="marker:none" transform="matrix(.52815 .40322 .40322 -.52815 918.50072637 1191.54576489)"/>
    <path d="M-1869.8111 739.99094s8.8332 54.6014 17.1957 56.51837c35.0436 8.03321-13.6853-51.72435-13.6853-51.72435l-3.5104-4.79402zm27.947 7.53722s24.6875 53.54034 34.509 49.0442c22.8083-10.44128-30.1574-49.94718-30.1574-49.94718l-4.3516.90298zm32.962-1.99379c-2.5392 17.8051 46.9769 72.09419 55.0912 55.21749 6.1902-12.87488-55.0912-55.21749-55.0912-55.21749z" overflow="visible" style="marker:none" transform="matrix(.4593 .48018 .48018 -.4593 779.74859575 1315.09084632)"/>
    <path d="M-1869.8111 739.99094s2.9807 55.11862 11.5288 55.85026c35.9708 3.07876-7.1773-56.75324-7.1773-56.75324l-4.3515.90298zm19.2302 12.74092s33.0524 71.00725 36.9099 52.87292c2.2637-10.64157-23.3808-55.68028-36.9099-52.87292zm33.1095-7.38801s13.171 45.71285 21.7027 46.6161c26.9386 2.85178-17.3511-47.51908-17.3511-47.51908l-4.3516.90298z" overflow="visible" style="marker:none" transform="matrix(.28214 .6016 .6016 -.28214 409.00688867 1465.890456)"/>
  </g>
  <path fill="#c17d11" stroke="#8f5902" stroke-width="6" d="M-1878.6614 732.79287c21.4269 12.11081 25.5672 67.56241 34.0989 68.46566 26.9386 2.85178-28.8777-83.59652-28.8777-83.59652l-5.2212 15.13086zm36.7973 14.73529s23.8432 64.15906 32.375 65.06232c26.9386 2.85178-28.0234-65.9653-28.0234-65.9653l-4.3516.90298zm24.3927-2.18431s19.7806 53.23915 27.8472 55.5862c22.2621 6.47747-17.3511-47.51908-17.3511-47.51908l-10.4961-8.06712z" overflow="visible" style="marker:none" transform="matrix(.53414 .52005 .5834 -.4498 687.4746807 1322.2468235)"/>
  <g fill="#c17d11" stroke="#8f5902" stroke-width="6">
    <path d="M-1933.432 632.13872s-26.972 38.68796-21.2133 44.44672c18.1828 18.18274 25.2539-42.42641 25.2539-42.42641l-4.0406-2.02031z" overflow="visible" style="marker:none" transform="rotate(-73.916 -559.922054 -606.18047098) scale(.66448)"/>
    <path d="M-1929.2854 609.22069s-36.4757 29.89594-32.4999 37.00362c12.5534 22.44188 35.8389-33.96072 35.8389-33.96072l-3.339-3.0429zm.9042 51.2023s-26.972 38.68796-21.2133 44.44672c18.1828 18.18274 25.2539-42.42641 25.2539-42.42641l-4.0406-2.02031zm6.3923 20.79899s-17.3752 43.84459-10.4488 48.12834c21.8698 13.5255 14.8452-47.08906 14.8452-47.08906l-4.3964-1.03928zm9.4992 19.35651s-3.4088 47.03856 4.4842 49.04494c24.9218 6.33483.021-49.37367.021-49.37367l-4.5056.32873zm22.2234 26.26397s-3.4088 47.03856 4.4842 49.04494c24.9218 6.33483.021-49.37367.021-49.37367l-4.5056.32873zm21.2132 12.12183s-3.4088 47.03856 4.4842 49.04494c24.9218 6.33483.021-49.37367.021-49.37367l-4.5056.32873zm24.2437 11.11168s-3.4088 47.03856 4.4842 49.04494c24.9218 6.33483.021-49.37367.021-49.37367l-4.5056.32873zm24.2437 1.01015s-3.4088 47.03856 4.4842 49.04494c24.9218 6.33483.021-49.37367.021-49.37367l-4.5056.32873zm25.2538 7.07107s-3.4088 47.03856 4.4842 49.04494c24.9218 6.33483.021-49.37367.021-49.37367l-4.5056.32873z" overflow="visible" style="marker:none" transform="rotate(-73.916 -559.922054 -606.18047098) scale(.66448)"/>
  </g>
  <path fill="#c17d11" stroke="#8f5902" stroke-width="6" d="M-1918.2903 591.15987s-35.3537 23.05335-31.3871 31.16217c12.5241 25.60285 34.6864-27.35058 34.6864-27.35058l-3.2993-3.81159zm23.1814 139.92714s13.1709 45.71285 21.7027 46.61611c26.9386 2.85178-17.3511-47.51909-17.3511-47.51909l-4.3516.90298z" overflow="visible" style="marker:none" transform="translate(1381.46325 -133.68716) scale(.66448)"/>
  <use xlink:href="#b" fill="#c17d11" stroke="#8f5902" stroke-width="6" overflow="visible" style="marker:none" transform="translate(1381.46325 -133.68716) scale(.66448)"/>
  <path fill="#c17d11" stroke="#8f5902" stroke-width="6" d="M-1789.9445 748.86095s13.1709 45.71284 21.7027 46.6161c26.9386 2.85178-17.3511-47.51908-17.3511-47.51908l-4.3516.90298z" overflow="visible" style="marker:none" transform="translate(1381.46325 -133.68716) scale(.66448)"/>
  <use xlink:href="#b" fill="#c17d11" stroke="#8f5902" stroke-width="6" overflow="visible" style="marker:none" transform="rotate(47.07 -348.97676578 1941.42480087) scale(.66448)"/>
  <path fill="#c17d11" stroke="#8f5902" stroke-width="6" d="M-1921.1474 616.87416s-35.3537 23.05335-31.3871 31.16217c12.5241 25.60285 34.6864-27.35058 34.6864-27.35058l-3.2993-3.81159z" overflow="visible" style="marker:none" transform="translate(1381.46325 -133.68716) scale(.66448)"/>
  <path fill="#c17d11" stroke="#8f5902" stroke-width="6" d="M-1878.6614 732.79287c21.4269 12.11081 25.5672 67.56241 34.0989 68.46566 26.9386 2.85178-28.8777-83.59652-28.8777-83.59652l-5.2212 15.13086zm36.7973 14.73529s23.8432 64.15906 32.375 65.06232c26.9386 2.85178-28.0234-65.9653-28.0234-65.9653l-4.3516.90298z" overflow="visible" style="marker:none" transform="matrix(.53414 .52005 .5834 -.4498 730.19113227 1326.99306268)"/>
  <path fill="#c17d11" stroke="#8f5902" stroke-width="6" d="M-1869.8111 739.99094s13.1709 45.71285 21.7026 46.6161c26.9386 2.85178-17.3511-47.51908-17.3511-47.51908l-4.3515.90298zm27.947 7.53722s13.1709 45.71284 21.7027 46.6161c26.9386 2.85178-17.3511-47.51908-17.3511-47.51908l-4.3516.90298zm24.3927-2.18431s24.2247 54.63546 32.5356 52.50593c29.8172-7.64017-28.184-53.40891-28.184-53.40891l-4.3516.90298z" overflow="visible" style="marker:none" transform="matrix(.07475 .66026 .66026 -.07475 13.5727075 1470.15196354)"/>
  <path fill="#c17d11" d="M-1877.3763 231.13586c-88.9085-13.16354-131.2034 100.31277-28.2799 107.14539-57.0322-9.43803-104.5599 8.88101-128.4412 53.97434-14.5341 72.02423 29.639 149.08996 99.0215 173.72007 25.0004 14.01291 102.5677 17.33517 93.0125 17.75511-33.6237 10.961-90.0403-21.90986-85.674 34.72855-11.6115 58.30763 24.7734 132.97003 84.9316 148.7787 94.8009 24.91225 233.1453 23.60405 315.4591-58.62487 38.2414-36.02245 48.3111-91.51594 37.6279-141.3944-4.0946 9.21102 9.0223-331.38222-387.6575-336.08289z" overflow="visible" style="marker:none" transform="translate(1381.46325 -133.68716) scale(.66448)"/>
  <path fill="#8f5902" d="M-1866.625 517.40625c-20.8583 11.40042-46.6131 14.6521-69.2643 6.84962-7.5516-3.41718 1.8118 7.46996 2.7553 11.18013 6.3957 12.25059 12.5904 24.61654 19.2278 36.72025 6.4476-4.51319 15.2119-.54005 21.8437-4.21875 7.3559 2.64339 14.5598-2.04977 21.75-2.6875 8.1063-2.22151 12.3084-11.21575 10.4488-19.15605-.6701-8.40324 1.7699-17.32119-.4488-25.40645-1.3429-2.09517-3.7876-3.53771-6.3125-3.28125z" overflow="visible" style="marker:none" transform="translate(1381.46325 -133.68716) scale(.66448)"/>
  <path fill="#fff" d="M-1869.4778 529.4581c-16.7188 8.25071-34.3599 10.79455-51.251 8.15306l11.6245 22.35312 10.8488-.3338 2.4981-19.35934 7.5125 18.71019 18.0328-4.44477.7343-25.07846z" overflow="visible" style="marker:none" transform="translate(1381.46325 -133.68716) scale(.66448)"/>
  <path fill="#8f5902" d="M-1827.4062 267.03125c-41.3823 9.48786-84.7189 7.69966-126.2813 1.125-9.452 3.57859-11.0689 15.37566-12 24.21875-1.0862 20.77948 14.1939 42.07465 35.5313 44.1875 8.3046 1.2729 17.1819-.20724 24.125-5.0625 9.1381 13.26126 27.2967 19.30114 42.5 13.65625 22.0427-5.51134 42.9851-22.53684 46.9687-45.78125 1.3638-11.65822-2.5541-23.45918-9.5625-32.65625l-.9715.23696-.3097.0755z" overflow="visible" style="marker:none" transform="translate(1381.46325 -133.68716) scale(.66448)"/>
  <path fill="#fff" d="M-1829.7812 275.75c-15.8317 3.62686-37.4109 5.875-61.2188 5.875-2.6079 0-5.1996-.0412-7.75-.0937-.2772.43145-.5779.84065-.8438 1.28125-.1395-.44121-.3139-.87292-.4687-1.3125-20.1129-.48523-38.1922-2.55133-51.9687-5.6875-3.6204 4.9218-5.8932 10.63683-5.6563 16.75 1.1543 30.41375 21.5202 36.40624 35.2187 36.40625 7.1293-.00001 13.5035-4.05249 18.0313-10.5 2.8016 6.92125 11.0724 16.71246 18.6563 19.21875 17.673 5.84066 47.086-7.91493 57.8437-28.375 5.9677-11.34987 4.0566-23.75917-1.8437-33.5625z" overflow="visible" style="marker:none" transform="translate(1381.46325 -133.68716) scale(.66448)"/>
  <path fill="#8f5902" d="M-1877.7498 283.42654c-4.884-.022-9.4191 4.4119-10.383 10.40086-1.0281 6.3882 2.3905 12.11442 7.6345 12.78793 5.244.67351 10.3474-3.94444 11.3754-10.33265.1153-.7164.1838-1.42061.1909-2.11427-.6787 1.7338-2.3604 2.96679-4.3135 2.96679-2.5542.00002-4.6189-2.08582-4.6189-4.67185 0-2.58605 2.0647-4.70596 4.6189-4.70596 1.3578-.00001 2.5888.59044 3.4355 1.53455-1.256-3.13802-3.7731-5.38951-6.9474-5.79719-.3277-.0421-.6669-.0667-.9924-.0682zm-34.8246-1.51889c-4.7596 1.09533-8.1607 6.44881-7.7296 12.4995.4599 6.45402 5.0973 11.24683 10.3564 10.70339 5.259-.54344 9.1712-6.20598 8.7113-12.66002-.052-.72378-.1459-1.42499-.2976-2.1019-.2643 1.84306-1.6195 3.42794-3.5209 3.87454-2.4865.58406-4.9734-.97441-5.5647-3.49193-.5914-2.51751.9338-5.05338 3.4204-5.63742 1.3218-.3105 2.6552-.0172 3.6954.7083-1.9404-2.76767-4.9055-4.38394-8.0889-4.055-.3287.034-.6645.0875-.9818.16054zm-5.6534 108.8095c4.8372 22.47501-7.6655 85.42303-32.7899 90.23319-25.1245 4.81015-78.7996-41.72331-83.6367-64.19833-4.8371-22.47506 14.142-43.27378 39.2664-48.08391 25.1245-4.81015 72.323-.426 77.1602 22.04905z" overflow="visible" style="marker:none" transform="translate(1381.46325 -133.68716) scale(.66448)"/>
  <use xlink:href="#c" overflow="visible" style="marker:none" transform="rotate(67.608 87.08544267 584.21549537) scale(.66448)"/>
  <use xlink:href="#d" overflow="visible" style="marker:none" transform="rotate(67.608 87.08544267 584.21549537) scale(.66448)"/>
  <path fill="#8f5902" d="M-1891.2507 351.21479s53.7832 20.30458 90.1487-56.46702c2.0203 10.10153-40.6512 96.87312-90.1487 56.46702z" overflow="visible" style="marker:none" transform="translate(1381.46325 -133.68716) scale(.66448)"/>
  <path fill="#8f5902" d="M-21.576425 503.46305c-35.988607 4.18507-43.301892 47.28034-12.592352 86.19248-57.901581 119.84565-24.453455 171.92601 27.1589855 185.90653C50.85152 791.23524 102.72471 745.17299 117.07589 670.75446c2.53191-13.12928 3.76652-26.10147 3.84375-38.625 9.33549-5.53943 17.03879-15.89561 20.25-28.90625 5.50585-22.30761-4.25385-43.92396-21.78125-48.25-9.88524-2.43982-20.135368 1.13276-28.187497 8.71875 6.129024-37.23287-24.350758-41.03965-50.129464-13.10268-6.477393-21.04494-26.659247-51.3113-62.647854-47.12623z" overflow="visible" style="marker:none" transform="rotate(1.544 4580.03126653 12506.19039075) scale(.66448)"/>
  <path fill="#c17d11" d="M-38.023663 526.13181c-17.673487 37.62201 13.916516 62.08247 13.916516 62.08247-22.351439 79.51709-60.51179 91.68191-34.47321 137.25893 13.957334 28.56068 70.303757 50.47392 88.78125 43.5625 73.718477-31.96159 83.069937-74.26665 80.130127-144.8635 20.90214-5.20151 31.42209-41.83503 15.29275-55.88013-18.12913-15.78647-25.875924 17.26207-48.163949 26.38202 30.520609-72.51042-30.616396-51.75206-50.803571-10.39732 28.944365-42.15234-46.718334-96.38026-64.679913-58.14497zm80.130806 59.37265c39.935605-.68704 60.296877 39.27899 52.897321 37.57143-25-30.71429-88.5848191-28.57141-88.5848211-28.57143 13.6383931-6.23884 25.5078361-8.82487 35.6875001-9z" overflow="visible" style="marker:none" transform="rotate(1.544 4580.03126653 12506.19039075) scale(.66448)"/>
  <use xlink:href="#a" overflow="visible" style="marker:none" transform="matrix(.7495 1.12473 -.37287 .49025 642.30105882 44.68481343)"/>
  <g transform="matrix(-.17143 .61438 .41609 .25312 -102.51340006 275.77809903)">
    <use xlink:href="#c" overflow="visible" style="marker:none"/>
    <use xlink:href="#d" overflow="visible" style="marker:none"/>
  </g>
  <path fill="#fff" d="M-1992.1428 377.36218c-1.4396 0-83.0422 27.51052 9.704 83.08122-12.6224-18.95305-56.2677-46.10822-9.704-83.08122z" opacity=".1" overflow="visible" style="marker:none" transform="translate(1381.46325 -133.68716) scale(.66448)"/>
</svg>